<svg width="64" height="27" viewBox="0 0 64 27" fill="none" xmlns="http://www.w3.org/2000/svg">
<path d="M63.9291 12.42V7.07C63.9291 4.25 62.3595 3.53 60.7088 3.53C58.7443 3.53 57.7519 3.84 56.8911 6.84C56.6481 6.17 56.0709 4.6 55.8886 3.75H52.5772C52.4152 3.75 52.2734 3.82 52.2734 4.06V4.08C52.2734 5.33 53.1949 7.82 53.8835 9.3C53.5392 10.67 53.1038 13.58 52.8607 15.19H56.6785C56.9012 12.7 57.3975 9.52 57.8025 7.96C58.0861 6.89 58.6228 6.8 58.9873 6.8C59.6152 6.8 60.0101 7.16 60.0101 7.85V11.32C60.0101 11.86 59.9088 12.04 59.4835 12.04H58.4607V15.2H62.0354C63.6051 15.2 63.9291 14.19 63.9291 12.42ZM51.4633 15.2V7.18C51.4633 4.6 50.4202 3.75 48.324 3.75H43.3013V6.91H46.7342C47.4531 6.91 47.6759 7.27 47.6759 7.94V15.2H51.4734H51.4633ZM42.481 9.53C42.481 5.86 41.9544 3.75 37.9747 3.75H34.319V6.91H37.2354C38.0759 6.91 38.5823 7.42 38.5823 9.55C38.5823 11.5 38.0962 12.04 37.2354 12.04H34.319V15.2H37.9747C41.5899 15.2 42.481 13.16 42.481 9.53ZM33.4987 13.16V7.16C33.4987 4.23 31.9899 3.76 30.2785 3.76H27.8278V6.92H28.8709C29.4177 6.92 29.6709 7.23 29.6709 7.86V11.6C29.6709 11.94 29.7721 12.05 29.5088 12.05H27.4835V15.21H32.2633C33.2456 15.21 33.5088 14.43 33.5088 13.17M26.6734 15.21V7.15C26.6734 4.75 25.3873 3.77 23.4126 3.77H15.3721V6.93H17.043C16.6785 7.29 16.6582 8.03 16.6582 8.56V11.27C16.6582 11.67 16.5164 12.05 15.9797 12.05H15.0582V15.21H17.6506C19.5038 15.21 20.4456 13.98 20.4456 12.1V7.22C20.4456 7.09 20.5063 6.93 20.6481 6.93H21.9747C22.5215 6.93 22.8759 7.15 22.8759 7.98V15.21H26.6734ZM14.5215 11.07V5.99C14.5215 4.67 13.9139 3.77 12.4557 3.77H9.35695V6.93H10.1772C10.5418 6.93 10.7038 7.09 10.7038 7.51V11.07H14.5215ZM8.54682 9.03V6.05C8.54682 4.33 7.90885 3.77 6.35948 3.77H4.33416C4.11138 3.77 3.94935 3.66 3.94935 3.35V0H0.0911255V4.88C0.0911255 6.36 0.617708 6.92 1.78226 6.92H4.13163C4.53669 6.92 4.73923 7.12 4.73923 7.57V9.27C4.73923 11.31 3.67594 12.18 2.20758 12.18H1.59999V15.2H2.76454C5.55948 15.2 8.5367 13.97 8.5367 9.02M32.4861 22.81C41.2354 22.81 56.2025 22.1 63.1899 16.64C63.2506 16.59 63.4228 16.49 63.5443 16.56C63.6152 16.6 63.6456 16.65 63.6759 16.72C63.838 17.05 63.8987 17.4 63.919 17.86C63.9392 18.31 63.9494 18.58 63.8076 19C63.757 19.16 63.7063 19.24 63.6152 19.38C63.5443 19.49 63.4532 19.6 63.4025 19.64C63.2202 19.81 62.7139 20.18 62.6633 20.21C54.9873 25.85 41.8734 26.99 32.4962 26.99H32.243C22.8557 26.99 9.04302 25.28 1.36708 19.64C1.32657 19.61 0.810114 19.23 0.627835 19.07C0.577202 19.02 0.486063 18.92 0.415177 18.81C0.324038 18.67 0.283531 18.59 0.222771 18.43C0.0708724 18.01 0.0809994 17.74 0.111379 17.29C0.131632 16.84 0.192392 16.48 0.354417 16.15C0.394923 16.08 0.415176 16.03 0.486063 15.99C0.607582 15.92 0.779733 16.02 0.840492 16.07C7.82783 21.53 23.4937 22.81 32.2532 22.81H32.4861Z" fill="#2E6B2C"/>
</svg>
