<svg version="1.1" id="Layer_1" xmlns="http://www.w3.org/2000/svg" xmlns:xlink="http://www.w3.org/1999/xlink" x="0px" y="0px" viewBox="0 0 499.5 231.6" style="enable-background:new 0 0 499.5 231.6;" xml:space="preserve">
 <style type="text/css">
  .st0{fill:#4D555A;}
	.st1{fill:#F5821F;}
 </style>
 <g>
  <path class="st0" d="M450.1,157c3.3-23-8.8-49.3-28.9-66.6c-30.1-25.9-84.2-37.8-136.5-5.8c-2.7,1.6-5.3,1.9-6.6,1.1
		c-2-1.2-1.7-4.1-0.2-6c11.1-13.8,56.6-75,121.5-75c43.2,0,83.8,30.2,95.4,73.6c3,11.4,4.5,20.9,4.5,29c0,0-6.1,27.7-38.2,44.4
		C457.6,153.6,453.9,155.3,450.1,157">
  </path>
  <path class="st1" d="M219.5,38.2c15.3,13.8,98.1,86.7,108,95.5c53.8,47.5,103.1,33.9,133.8,17.9c32-16.7,38.2-44.4,38.2-44.4
		c0.1,9.2,1.5,65.2-53.8,101.7c-36.2,23.9-99.1,42.6-169.3-18.3c-14-12.2-103.2-88.7-113.2-97.5C109.4,45.6,56.9,61.9,25.9,88.8
		c-9.1,7.9-20.8,21.6-25.5,33.7c0.3-5.6-0.8-37.2,31.6-75.7C47.6,28.5,77.8,0,128.8,0C158.4,0,185,7,219.5,38.2">
  </path>
  <path class="st0" d="M4.2,161.4c-3.7-12.7-5-25.9-3.8-39c4.8-12.1,16.4-25.7,25.5-33.6c7.2-6.3,15.2-11.7,23.8-15.9
		c-5.3,24,7.1,50.4,28.2,68.6c30.1,25.9,82.3,37.8,134.6,5.9c2.7-1.6,5.4-2.1,6.6-1.1c1.8,1.5,1.8,3.9,0.2,6
		C208.5,166.4,164,227.6,99,227.6C55.9,227.6,16.6,204.6,4.2,161.4">
  </path>
 </g>
</svg>